<svg xmlns="http://www.w3.org/2000/svg" width="512" height="512" viewBox="0 0 512 512" version="1.1"><path d="" stroke="none" fill="#080404" fill-rule="evenodd"/><path d="M 241.120 7.710 C 237.268 9.608, 232.653 15.491, 230.937 20.691 C 228.528 27.990, 229.972 32.947, 243.882 65.104 L 257.119 95.708 262.309 96.846 C 280.355 100.800, 310.120 101.377, 328.865 98.136 C 335.115 97.055, 340.593 95.795, 341.039 95.335 C 342.577 93.747, 366.947 36.198, 367.921 31.853 C 369.647 24.149, 366.755 15.626, 360.572 10.198 C 353.932 4.367, 345.815 4.614, 335.382 10.963 C 326.292 16.495, 321.767 16.327, 311.231 10.068 C 304.498 6.068, 303.572 5.791, 298.241 6.185 C 293.683 6.521, 291.058 7.489, 285.500 10.880 C 279.243 14.698, 277.968 15.110, 273.491 14.763 C 269.857 14.482, 266.547 13.226, 261.433 10.188 C 255.674 6.767, 253.479 6.004, 249.442 6.023 C 246.724 6.035, 242.979 6.795, 241.120 7.710 M 235.027 115.858 C 174.654 152.172, 134.047 207.493, 123.351 268 C 121.098 280.747, 121.091 307.200, 123.338 319.500 C 125.235 329.889, 128.756 343.120, 129.945 344.330 C 130.394 344.787, 135.025 344.237, 140.236 343.108 C 161.792 338.438, 182.026 338.360, 202.614 342.870 C 212.616 345.060, 354.103 386.471, 357.386 388.169 C 358.549 388.770, 361.718 390.835, 364.430 392.758 L 369.360 396.255 412.283 385.878 L 455.206 375.500 460.515 364.500 C 466.784 351.513, 471.128 338.870, 474.173 324.749 C 477.437 309.614, 477.446 279.309, 474.192 263.166 C 467.937 232.136, 452.741 200.808, 430.698 173.500 C 421.254 161.801, 400.206 141.742, 386.919 131.779 C 370.696 119.614, 354.180 109.731, 351 110.284 C 349.625 110.523, 344 111.659, 338.500 112.809 C 323.921 115.856, 304.573 117.352, 290 116.559 C 276.995 115.850, 258.912 113.127, 250.785 110.652 L 246.069 109.217 235.027 115.858 M 293.455 204.455 C 291.195 206.714, 291 207.660, 291 216.343 L 291 225.777 287.297 226.472 C 278.728 228.080, 269.565 235.107, 265.177 243.437 C 262.830 247.893, 262.510 249.640, 262.510 258 C 262.510 266.360, 262.830 268.107, 265.177 272.563 C 270.278 282.246, 279.085 288.111, 295.232 292.580 C 317.043 298.617, 317.669 298.859, 320.844 302.475 C 334.900 318.484, 308.962 336.813, 288.223 325.525 C 281.948 322.109, 279.244 319.307, 274.218 311.007 C 269.473 303.171, 265.703 301.342, 261.201 304.693 C 256.802 307.968, 256.339 310.890, 259.232 317.102 C 264.626 328.682, 274.527 338.215, 285.250 342.155 L 291 344.268 291 353.679 C 291 362.339, 291.196 363.287, 293.455 365.545 C 295.002 367.093, 297.052 368, 299 368 C 300.948 368, 302.998 367.093, 304.545 365.545 C 306.785 363.306, 307 362.309, 307 354.157 L 307 345.223 310.668 344.535 C 322.782 342.262, 332.863 335.052, 337.700 325.203 C 340.066 320.384, 340.497 318.259, 340.483 311.500 C 340.463 302.370, 338.424 297.275, 332.144 290.664 C 327.048 285.298, 321.170 282.577, 306.885 278.971 C 300.085 277.254, 292.375 274.927, 289.753 273.798 C 273.666 266.878, 274.311 247.163, 290.781 242.375 C 300.854 239.447, 313.967 241.880, 319.179 247.644 C 320.102 248.665, 321.751 251.585, 322.843 254.133 C 326.112 261.759, 331.242 263.957, 336.365 259.927 C 341.239 256.094, 339.113 246.166, 331.519 237.294 C 327.704 232.837, 318.800 227.731, 311.750 225.957 L 307 224.763 307 215.836 C 307 207.691, 306.785 206.694, 304.545 204.455 C 302.998 202.907, 300.948 202, 299 202 C 297.052 202, 295.002 202.907, 293.455 204.455 M 0.244 419.750 L 0.500 500.500 42.384 500.761 C 72.473 500.949, 84.653 500.703, 85.634 499.889 C 86.767 498.948, 87 485.417, 87 420.459 C 87 377.397, 86.727 341.452, 86.393 340.582 C 85.853 339.173, 81.083 339, 42.887 339 L -0.012 339 0.244 419.750 M 36.764 350.937 C 16.678 357.413, 15.001 385.419, 34.218 393.447 C 39.059 395.469, 48.224 395.440, 52.300 393.390 C 68.845 385.066, 70.153 362.621, 54.625 353.520 C 49.698 350.633, 41.421 349.436, 36.764 350.937 M 153.134 357.064 C 150.183 357.588, 137.867 360.263, 125.766 363.008 C 113.665 365.754, 103.592 368, 103.382 368 C 103.172 368, 103 390.050, 103 417 C 103 443.950, 103.165 466, 103.366 466 C 103.567 466, 130.904 473.901, 164.116 483.559 C 242.095 506.234, 237.221 505.067, 256.693 505.716 C 274.549 506.312, 285.774 504.912, 300 500.315 C 304.125 498.982, 350.856 479.129, 403.847 456.196 C 473.710 425.962, 501.276 413.577, 504.132 411.143 C 509.132 406.878, 512 401.273, 512 395.762 C 512 390.206, 510.089 387.581, 504.486 385.442 C 496.688 382.463, 488.773 383.810, 431.087 397.928 C 401.710 405.117, 377.585 411, 377.474 411 C 377.364 411, 377.039 413.927, 376.752 417.505 C 375.742 430.089, 367.967 440.518, 356.147 445.143 C 344.936 449.531, 341.421 449.035, 263.500 432.072 C 225 423.691, 192.467 416.173, 191.205 415.365 C 184.867 411.306, 187.545 401.127, 194.977 401.032 C 196.339 401.014, 228.739 407.786, 266.977 416.079 C 327.612 429.230, 337.417 431.114, 343.677 430.813 C 349.926 430.513, 351.347 430.071, 354.677 427.387 C 363.741 420.083, 362.143 409.098, 351.213 403.572 C 347.488 401.689, 213.067 361.935, 200 358.852 C 190.218 356.544, 162.102 355.472, 153.134 357.064 M 40.500 367.203 C 37.801 368.723, 37.033 370.021, 37.015 373.095 C 36.985 378.280, 43.879 381.001, 47.345 377.171 C 49.294 375.018, 49.536 369.674, 47.750 368.245 C 45.539 366.476, 42.553 366.047, 40.500 367.203" stroke="none" fill="#040404" fill-rule="evenodd"/></svg>